#!OML:ASF X:\für Bonn\!DataBase\2005_08_11_Bastian_Final\c3d\Bastian.ASF
:FULLY-SPECIFIED
:DEGREES
96
root -5.44198 16.8906 1.38058 543.314 39.1701 -171.397
lowerback 23.6301 0.635271 -4.79398
upperback 16.2325 3.09916 -1.38686
thorax 4.82851 2.49043 0.723674
lowerneck -12.2943 -15.1343 -24.1851
upperneck -8.80529 -17.3854 38.999
head 6.46052 -7.19014 15.5148
rclavicle 1.51076e-014 -4.85035e-014
rhumerus -7.79473 16.5887 -83.025
rradius 59.2501
rwrist 14.4902
rhand -14.1818 5.02763
rfingers 7.12502
rthumb 11.9538 -24.6111
lclavicle 1.51076e-014 -4.85035e-014
lhumerus -21.9938 -8.51682 -272.73
lradius 8.86031
lwrist -345.678
lhand -13.1364 -7.80705
lfingers 7.12502
lthumb 12.9617 21.7703
rfemur -7.62521 -4.66807 26.3014
rtibia 75.0196
rfoot 9.19363 1.1296
rtoes -28.1797
lfemur -28.736 -0.464432 -12.7735
ltibia 47.7052
lfoot -8.3877 -10.637
ltoes -16.3982
97
root -5.40971 16.9023 1.30384 543.198 39.3892 -171.333
lowerback 23.9271 0.590353 -4.72006
upperback 16.3348 3.07865 -1.35583
thorax 4.80827 2.49924 0.710895
lowerneck -12.434 -15.1627 -24.1498
upperneck -8.82605 -17.3976 39.0568
head 6.4913 -7.18142 15.5238
rclavicle 3.97569e-014 1.59028e-014
rhumerus -8.04555 16.5949 -83.1144
rradius 58.9794
rwrist 14.466
rhand -14.3267 5.0006
rfingers 7.12502
rthumb 11.8141 -24.6462
lclavicle 3.97569e-014 1.59028e-014
lhumerus -21.0751 -7.7927 -273.123
lradius 8.77583
lwrist -346.257
lhand -13.2641 -7.50031
lfingers 7.12502
lthumb 12.8387 22.0849
rfemur -9.08892 -4.37146 26.2991
rtibia 76.9143
rfoot 8.45066 0.963837
rtoes -28.0166
lfemur -28.1834 -0.2994 -12.8096
ltibia 47.71
lfoot -8.69985 -10.6516
ltoes -15.7374
98
root -5.37808 16.9131 1.22802 543.065 39.6306 -171.297
lowerback 24.209 0.546993 -4.6433
upperback 16.4331 3.06168 -1.35722
thorax 4.79312 2.51182 0.661464
lowerneck -12.5313 -15.1827 -24.1072
upperneck -8.88374 -17.3977 39.1662
head 6.51025 -7.171 15.5603
rclavicle 1.19271e-014 -7.15625e-015
rhumerus -8.29907 16.6009 -83.253
rradius 58.6525
rwrist 14.5023
rhand -14.5001 4.89515
rfingers 7.12502
rthumb 11.6468 -24.7611
lclavicle 1.19271e-014 -7.15625e-015
lhumerus -20.1863 -7.06109 -273.497
lradius 8.79346
lwrist -346.875
lhand -13.4526 -7.22273
lfingers 7.12502
lthumb 12.6569 22.3738
rfemur -10.5819 -4.03676 26.272
rtibia 78.7759
rfoot 7.52762 0.794308
rtoes -27.4157
lfemur -27.6294 -0.134428 -12.8704
ltibia 47.6964
lfoot -9.01685 -10.6255
ltoes -15.0733
99
root -5.34822 16.9223 1.15386 542.91 39.8719 -171.226
lowerback 24.5282 0.48381 -4.54429
upperback 16.5439 3.02698 -1.35199
thorax 4.77624 2.51899 0.609237
lowerneck -12.6392 -15.1895 -24.0905
upperneck -8.93483 -17.3745 39.2945
head 6.53239 -7.14746 15.6185
rclavicle -4.29375e-014 7.95139e-015
rhumerus -8.50802 16.6189 -83.4017
rradius 58.1914
rwrist 14.5601
rhand -14.7266 4.84491
rfingers 7.12502
rthumb 11.4284 -24.8236
lclavicle -4.29375e-014 7.95139e-015
lhumerus -19.2918 -6.27292 -273.854
lradius 8.86247
lwrist -347.566
lhand -13.6824 -7.00184
lfingers 7.12502
lthumb 12.4353 22.6082
rfemur -12.0483 -3.71532 26.255
rtibia 80.5842
rfoot 6.53027 0.680998
rtoes -26.3052
lfemur -27.0363 0.0854368 -12.9032
ltibia 47.6882
lfoot -9.31511 -10.6543
ltoes -14.4559
100
root -5.31847 16.9305 1.08051 542.69 40.129 -171.212
lowerback 24.8654 0.420883 -4.54026
upperback 16.6556 2.97528 -1.35124
thorax 4.75316 2.51036 0.608288
lowerneck -12.7871 -15.1708 -24.0202
upperneck -8.94711 -17.316 39.3604
head 6.54273 -7.10292 15.6464
rclavicle 5.08889e-014 2.94201e-014
rhumerus -8.73969 16.7397 -83.5654
rradius 57.7171
rwrist 14.5573
rhand -14.972 4.69002
rfingers 7.12502
rthumb 11.1918 -24.9915
lclavicle 5.08889e-014 2.94201e-014
lhumerus -18.4481 -5.40031 -274.214
lradius 9.024
lwrist -348.336
lhand -13.8966 -6.9332
lfingers 7.12502
lthumb 12.2288 22.6893
rfemur -13.505 -3.3656 26.1891
rtibia 82.3447
rfoot 5.55341 0.530861
rtoes -24.9723
lfemur -26.4068 0.287982 -12.9769
ltibia 47.6722
lfoot -9.60963 -10.6733
ltoes -13.7016
101
root -5.28923 16.9382 1.00761 542.456 40.3853 -171.136
lowerback 25.2333 0.342556 -4.49935
upperback 16.7817 2.91529 -1.34108
thorax 4.73379 2.5022 0.598308
lowerneck -12.9524 -15.1499 -23.942
upperneck -8.93946 -17.2572 39.423
head 6.56028 -7.05592 15.6715
rclavicle 1.19271e-014 -3.26007e-014
rhumerus -8.94167 16.9674 -83.6995
rradius 57.1774
rwrist 14.474
rhand -15.2502 4.46585
rfingers 7.12502
rthumb 10.9234 -25.23
lclavicle 1.19271e-014 -3.26007e-014
lhumerus -17.6048 -4.49685 -274.575
lradius 9.23904
lwrist -349.198
lhand -14.0813 -7.00743
lfingers 7.12502
lthumb 12.0508 22.6256
rfemur -14.9067 -3.04028 26.159
rtibia 84.0303
rfoot 4.64825 0.365299
rtoes -23.5839
lfemur -25.7164 0.516075 -12.9973
ltibia 47.6583
lfoot -9.90901 -10.7357
ltoes -12.9979
